<?xml version="1.0" encoding="UTF-8" standalone="no"?>
<svg
   xmlns:dc="http://purl.org/dc/elements/1.1/"
   xmlns:cc="http://creativecommons.org/ns#"
   xmlns:rdf="http://www.w3.org/1999/02/22-rdf-syntax-ns#"
   xmlns:svg="http://www.w3.org/2000/svg"
   xmlns="http://www.w3.org/2000/svg"
   xmlns:sodipodi="http://sodipodi.sourceforge.net/DTD/sodipodi-0.dtd"
   xmlns:inkscape="http://www.inkscape.org/namespaces/inkscape"
   version="1.0"
   width="24"
   height="24"
   overflow="scroll"
   id="svg16"
   sodipodi:docname="file-latex.svg"
   style="overflow:scroll"
   inkscape:version="0.92.3 (2405546, 2018-03-11)">
  <metadata
     id="metadata22">
    <rdf:RDF>
      <cc:Work
         rdf:about="">
        <dc:format>image/svg+xml</dc:format>
        <dc:type
           rdf:resource="http://purl.org/dc/dcmitype/StillImage" />
        <dc:title>LaTeX logo</dc:title>
      </cc:Work>
    </rdf:RDF>
  </metadata>
  <defs
     id="defs20" />
  <sodipodi:namedview
     pagecolor="#ffffff"
     bordercolor="#666666"
     borderopacity="1"
     objecttolerance="10"
     gridtolerance="10"
     guidetolerance="10"
     inkscape:pageopacity="0"
     inkscape:pageshadow="2"
     inkscape:window-width="2021"
     inkscape:window-height="999"
     id="namedview18"
     showgrid="false"
     fit-margin-top="0"
     fit-margin-left="0"
     fit-margin-right="0"
     fit-margin-bottom="0"
     inkscape:zoom="19.04"
     inkscape:cx="18.711222"
     inkscape:cy="11.081526"
     inkscape:window-x="823"
     inkscape:window-y="922"
     inkscape:window-maximized="0"
     inkscape:current-layer="layer1" />
  <title
     id="title2">LaTeX logo</title>
  <g
     transform="matrix(2.0986388,0,0,2.0225632,2.2577584,3.9048767)"
     id="g14"
     style="fill:#000000">
    <path
       d="m 4.9371242,3.7650794 c 0,0 -0.25,0 -0.25,0 -0.1,1.02 -0.24,2.26 -2,2.26 0,0 -0.81,0 -0.81,0 -0.47,0 -0.49,-0.07 -0.49,-0.4 0,0 0,-5.31000004 0,-5.31000004 0,-0.34 0,-0.48 0.94,-0.48 0,0 0.33,0 0.33,0 0,0 0,-0.3 0,-0.3 -0.36,0.03 -1.26,0.03 -1.67000002,0.03 -0.39,0 -1.17,0 -1.51,-0.03 0,0 0,0.3 0,0.3 0,0 0.23,0 0.23,0 0.77,0 0.79,0.11 0.79,0.47 0,0 0,5.25000004 0,5.25000004 0,0.36 -0.02,0.47 -0.79,0.47 0,0 -0.23,0 -0.23,0 0,0 0,0.31 0,0.31 0,0 5.19000002,0 5.19000002,0 0,0 0.27,-2.57 0.27,-2.57 z"
       id="path4"
       inkscape:connector-curvature="0" />
    <path
       d="m 6.7420142,4.6707666 c 0,0 1.37,-2 1.37,-2 0.21,-0.32 0.55,-0.64 1.44,-0.65 0,0 0,-0.3 0,-0.3 0,0 -2.38,0 -2.38,0 0,0 0,0.3 0,0.3 0.4,0.01 0.62,0.23 0.62,0.46 0,0.1 -0.02,0.12 -0.09,0.23 0,0 -1.14,1.68 -1.14,1.68 0,0 -1.28,-1.92 -1.28,-1.92 -0.02,-0.03 -0.07,-0.11 -0.07,-0.15 0,-0.12 0.22,-0.29 0.64,-0.3 0,0 0,-0.3 0,-0.3 -0.34,0.03 -1.07,0.03 -1.45,0.03 -0.31,0 -0.93,-0.01 -1.3,-0.03 0,0 0,0.3 0,0.3 0,0 0.19,0 0.19,0 0.55,0 0.74,0.07 0.93,0.35 0,0 1.83,2.77 1.83,2.77 0,0 -1.63,2.41 -1.63,2.41 -0.14,0.2 -0.44,0.66 -1.44,0.66 0,0 0,0.31 0,0.31 0,0 2.38,0 2.38,0 0,0 0,-0.31 0,-0.31 -0.46,-0.01 -0.63,-0.28 -0.63,-0.46 0,-0.09 0.03,-0.13 0.1,-0.24 0,0 1.41,-2.09 1.41,-2.09 0,0 1.58,2.38 1.58,2.38 0.02,0.04 0.05,0.08 0.05,0.11 0,0.12 -0.22,0.29 -0.65,0.3 0,0 0,0.31 0,0.31 0.35,-0.03 1.08,-0.03 1.45,-0.03 0.42,0 0.88,0.01 1.3,0.03 0,0 0,-0.31 0,-0.31 0,0 -0.19,0 -0.19,0 -0.52,0 -0.73,-0.05 -0.94,-0.36 0,0 -2.1,-3.18 -2.1,-3.18 z"
       id="path12"
       inkscape:connector-curvature="0" />
  </g>
  <g
     inkscape:groupmode="layer"
     id="layer1"
     inkscape:label="Layer 1"
     transform="translate(1.4999721,-461.95377)">
    <path
       d="m 6.496699,467.53254 c -0.04326,-0.12233 -0.064889,-0.16311 -0.2054815,-0.16311 -0.1405938,0 -0.1730371,0.0408 -0.2162971,0.16311 0,0 -1.7411937,4.15926 -1.7411937,4.15926 -0.075704,0.17331 -0.2054819,0.48933 -0.8760045,0.48933 0,0 0,0.25485 0,0.25485 0,0 1.6763042,0 1.6763042,0 0,0 0,-0.25485 0,-0.25485 -0.3352605,0 -0.5407429,-0.14273 -0.5407429,-0.34661 0,-0.051 0.010806,-0.0714 0.032444,-0.14272 0,0 0.3677054,-0.8767 0.3677054,-0.8767 0,0 2.1413437,0 2.1413437,0 0,0 0.4325949,1.03981 0.4325949,1.03981 0.021627,0.0408 0.04326,0.0917 0.04326,0.12233 0,0.20389 -0.4109654,0.20389 -0.6164478,0.20389 0,0 0,0.25485 0,0.25485 0,0 2.1305292,0 2.1305292,0 0,0 0,-0.25485 0,-0.25485 0,0 -0.1514087,0 -0.1514087,0 -0.5082987,0 -0.562373,-0.0714 -0.6380768,-0.27525 0,0 -1.8385282,-4.37334 -1.8385284,-4.37334 z m -0.4325944,0.72379 c 0,0 0.9625232,2.30391 0.9625232,2.30391 0,0 -1.9250462,0 -1.9250462,0 0,0 0.962523,-2.30391 0.962523,-2.30391 z"
       id="path6"
       inkscape:connector-curvature="0"
       style="fill:#999999;stroke-width:1.04999816" />
    <path
       d="m 13.565291,467.83462 c 0,0 -4.5048888,0 -4.5048888,0 0,0 -0.1331566,1.54304 -0.1331566,1.54304 0,0 0.1775279,0 0.1775279,0 0.1035681,-1.10906 0.2145191,-1.33638 1.3314945,-1.33638 0.133156,0 0.325476,0 0.399449,0.0138 0.155333,0.0276 0.155333,0.10333 0.155333,0.26177 0,0 0,3.61651 0,3.61651 0,0.23421 0,0.33065 -0.776705,0.33065 0,0 -0.2958884,0 -0.2958884,0 0,0 0,0.21355 0,0.21355 0.3032864,-0.0206 1.0504004,-0.0206 1.3906734,-0.0206 0.340269,0 1.102181,0 1.405464,0.0206 0,0 0,-0.21355 0,-0.21355 0,0 -0.295887,0 -0.295887,0 -0.776705,0 -0.776705,-0.0964 -0.776705,-0.33065 0,0 0,-3.61651 0,-3.61651 0,-0.13777 0,-0.23421 0.133156,-0.26177 0.08138,-0.0138 0.281092,-0.0138 0.421639,-0.0138 1.109579,0 1.220538,0.22732 1.324099,1.33638 0,0 0.184921,0 0.184921,0 0,0 -0.14055,-1.54304 -0.14055,-1.54304 z"
       id="path8"
       inkscape:connector-curvature="0"
       style="fill:#999999;stroke-width:0.71383607" />
    <path
       d="m 18.834022,470.6922 c 0,0 -0.177927,0 -0.177927,0 -0.177928,1.02885 -0.341621,1.51974 -1.558646,1.51974 0,0 -0.939457,0 -0.939457,0 -0.334504,0 -0.348738,-0.0471 -0.348738,-0.26898 0,0 0,-1.78872 0,-1.78872 0,0 0.633422,0 0.633422,0 0.690359,0 0.768647,0.21518 0.768647,0.78677 0,0 0.177929,0 0.177929,0 0,0 0,-1.77528 0,-1.77528 0,0 -0.177929,0 -0.177929,0 0,0.57159 -0.07828,0.78004 -0.768647,0.78004 0,0 -0.633422,0 -0.633422,0 0,0 0,-1.60715 0,-1.60715 0,-0.22191 0.01423,-0.26899 0.348738,-0.26899 0,0 0.910989,0 0.910989,0 1.088917,0 1.273962,0.36985 1.387835,1.30456 0,0 0.177927,0 0.177927,0 0,0 -0.199278,-1.50629 -0.199278,-1.50629 0,0 -3.985579,0 -3.985579,0 0,0 0,0.20173 0,0.20173 0,0 0.163694,0 0.163694,0 0.548017,0 0.562252,0.074 0.562252,0.31606 0,0 0,3.5102 0,3.5102 0,0.24208 -0.01423,0.31605 -0.562252,0.31605 0,0 -0.163694,0 -0.163694,0 0,0 0,0.20846 0,0.20846 0,0 4.085219,0 4.085219,0 0,0 0.298917,-1.7282 0.298917,-1.7282 z"
       id="path10"
       inkscape:connector-curvature="0"
       style="fill:#999999;stroke-width:0.69180316" />
  </g>
</svg>
